<svg height='100px' width='100px'  fill="#000000" xmlns="http://www.w3.org/2000/svg" xmlns:xlink="http://www.w3.org/1999/xlink" version="1.1" x="0px" y="0px" viewBox="0 0 100 100" enable-background="new 0 0 100 100" xml:space="preserve"><path d="M50,78.8c-1.7,0-16.3-8.9-24.3-14.8c-7.4-5.5-10-9.4-11.7-15.5c-1.7-6.4-0.2-13,4-18c5.5-6.5,13-7.2,16.5-7.2  c5.6,0,11.5,2.6,15.5,7.9c4-5.2,9.9-7.9,15.5-7.9c3.5,0,11,0.7,16.5,7.2c4.2,5,5.6,11.6,4,18c-1.7,6.1-4.4,10-11.7,15.5  C66.3,69.9,51.7,78.8,50,78.8z"></path></svg>